<svg width="1024" height="1024" viewBox="0 0 1024 1024" xmlns="http://www.w3.org/2000/svg" role="img" aria-label="Playground Tracker icon: a hand-drawn swing set" style="display: block">
<rect x="0" y="0" width="1024" height="1024" fill="#FFB31F"></rect>
<g fill="#12443A"><path d="M305.3 229.7 L298.0 239.8 L293.2 253.5 L288.5 269.9 L284.0 288.3 L279.5 308.2 L275.1 329.0 L270.9 350.1 L266.9 371.1 L263.2 391.2 L259.8 410.0 L256.6 428.1 L253.5 446.2 L250.3 464.4 L247.2 482.6 L244.0 500.7 L240.7 518.9 L237.3 537.0 L233.6 555.1 L229.8 573.1 L225.8 591.1 L221.4 609.8 L216.3 629.7 L211.0 650.3 L205.4 671.1 L200.0 691.7 L194.8 711.4 L190.3 729.7 L186.7 746.2 L184.4 760.5 L186.3 772.5 L186.8 785.2 L194.7 795.1 L206.9 798.4 L218.7 794.0 L225.7 783.5 L233.5 774.2 L238.9 761.0 L244.5 745.0 L250.2 726.9 L256.1 707.3 L262.1 686.8 L268.0 665.8 L273.8 644.9 L279.2 624.6 L284.3 605.5 L289.0 587.3 L293.8 569.2 L298.5 551.0 L303.3 532.8 L308.0 514.6 L312.6 496.4 L317.1 478.2 L321.4 459.9 L325.5 441.5 L329.3 423.1 L333.0 403.6 L336.4 382.9 L339.4 361.4 L342.2 339.7 L344.4 318.3 L346.2 297.9 L347.3 278.9 L347.8 261.9 L347.3 247.5 L343.4 235.7 L341.6 223.9 L333.1 215.5 L321.3 213.6 L310.7 219.0 Z"></path>
<path d="M680.8 238.0 L678.2 249.5 L679.0 263.5 L680.8 280.2 L683.2 298.8 L686.1 318.9 L689.2 339.9 L692.5 361.3 L695.8 382.6 L699.2 403.3 L702.6 422.7 L706.0 441.4 L709.7 460.0 L713.6 478.4 L717.7 496.7 L721.8 514.8 L726.2 532.7 L730.6 550.5 L735.0 568.2 L739.5 585.7 L744.1 603.1 L748.9 621.4 L754.2 641.0 L759.8 661.4 L765.7 681.9 L771.7 702.1 L777.7 721.4 L783.6 739.2 L789.3 755.1 L794.8 768.3 L802.4 777.9 L808.0 787.5 L818.3 792.0 L829.2 789.6 L836.6 781.2 L837.6 770.1 L840.4 758.3 L840.0 744.0 L838.6 727.3 L836.5 708.6 L833.8 688.4 L830.7 667.5 L827.2 646.1 L823.4 625.0 L819.4 604.7 L815.2 585.5 L810.7 567.2 L805.8 549.0 L800.5 531.1 L794.9 513.4 L789.2 495.9 L783.5 478.5 L777.8 461.2 L772.3 443.9 L767.1 426.7 L762.2 409.5 L757.6 391.3 L753.0 371.7 L748.6 351.1 L744.4 330.2 L740.3 309.7 L736.5 289.9 L732.8 271.6 L729.2 255.3 L725.4 241.5 L719.0 231.4 L713.4 220.8 L702.7 215.5 L690.9 217.5 L682.5 226.1 Z"></path>
<path d="M228.9 285.3 L240.5 290.1 L255.2 292.1 L272.5 293.5 L291.9 294.5 L312.9 295.1 L334.8 295.5 L357.0 295.7 L379.0 295.6 L400.3 295.2 L420.2 294.6 L439.4 293.8 L458.5 292.6 L477.6 291.2 L496.6 289.6 L515.5 287.9 L534.3 286.2 L553.1 284.6 L571.9 283.1 L590.6 281.9 L609.2 281.0 L628.7 280.4 L649.7 280.2 L671.5 280.3 L693.6 280.7 L715.3 281.1 L736.2 281.5 L755.6 281.8 L772.9 281.7 L787.6 280.8 L799.2 276.6 L810.9 273.3 L818.4 263.8 L818.9 251.7 L812.2 241.6 L800.8 237.4 L789.7 232.3 L775.2 230.2 L758.0 228.5 L738.6 227.0 L717.6 225.6 L695.7 224.3 L673.3 223.1 L651.0 222.0 L629.4 221.0 L609.1 220.3 L589.6 219.7 L570.2 219.3 L550.8 219.1 L531.5 219.0 L512.2 219.0 L493.0 219.2 L473.9 219.6 L454.8 220.1 L435.9 220.8 L416.9 221.7 L397.1 222.9 L375.8 224.5 L353.8 226.3 L331.6 228.5 L309.9 231.0 L289.1 233.6 L269.8 236.5 L252.7 239.5 L238.2 242.8 L227.1 248.7 L216.6 252.7 L210.3 262.2 L210.9 273.5 L217.9 282.3 Z"></path>
</g>
<g transform="rotate(-12 512 262)">
<g fill="#12443A"><path d="M404.8 261.8 L401.8 272.4 L400.4 286.1 L399.3 302.4 L398.5 320.7 L398.0 340.4 L397.6 361.1 L397.5 382.1 L397.5 402.9 L397.6 423.1 L397.7 442.0 L398.0 460.9 L398.2 481.1 L398.5 501.9 L398.8 522.9 L399.1 543.6 L399.5 563.3 L400.0 581.6 L400.8 597.9 L401.8 611.6 L404.5 622.2 L407.6 631.3 L415.4 636.8 L425.0 636.7 L432.7 630.9 L435.5 621.8 L437.8 611.0 L438.4 597.2 L438.6 580.9 L438.4 562.6 L438.1 542.9 L437.8 522.3 L437.5 501.4 L437.3 480.7 L437.2 460.7 L437.4 442.0 L437.6 423.3 L438.1 403.3 L438.5 382.6 L439.0 361.7 L439.3 341.1 L439.4 321.4 L439.3 303.1 L438.8 286.8 L437.8 273.0 L435.2 262.2 L432.4 253.3 L424.9 247.6 L415.5 247.5 L407.8 252.9 Z"></path>
<path d="M589.2 262.7 L587.6 273.6 L587.7 287.4 L588.2 303.8 L588.8 322.0 L589.5 341.7 L590.1 362.2 L590.5 383.1 L590.7 403.7 L590.7 423.5 L590.4 442.0 L589.8 460.4 L589.1 480.2 L588.4 500.8 L587.7 521.7 L587.2 542.2 L586.9 561.9 L586.8 580.2 L587.0 596.5 L587.6 610.4 L589.8 621.3 L592.1 629.8 L599.0 635.3 L607.7 635.7 L615.1 630.9 L618.2 622.7 L621.4 612.2 L623.5 598.5 L625.6 582.3 L627.5 564.0 L629.2 544.3 L630.7 523.6 L631.8 502.5 L632.5 481.5 L632.8 461.2 L632.6 442.0 L631.9 422.8 L630.9 402.5 L629.7 381.6 L628.3 360.5 L626.9 339.8 L625.5 320.1 L624.1 301.8 L622.8 285.5 L621.4 271.8 L618.8 261.3 L615.5 252.7 L607.9 247.7 L598.8 248.2 L591.6 253.9 Z"></path>
</g>
<path d="M398.1 627.5 C404.9 627.5 425.1 625.0 438.9 624.9 C452.7 624.7 466.5 626.8 480.8 626.6 C495.1 626.3 510.6 623.1 524.6 623.3 C538.6 623.5 551.3 627.4 564.8 628.0 C578.4 628.7 592.5 627.6 605.9 627.1 C619.3 626.6 633.0 623.2 645.4 625.1 C657.8 627.0 674.8 628.3 680.5 638.4 C686.2 648.5 685.8 677.3 679.5 685.9 C673.2 694.4 655.4 689.1 642.5 689.8 C629.7 690.6 616.6 690.4 602.6 690.4 C588.6 690.4 572.0 689.9 558.4 689.8 C544.7 689.7 533.5 689.8 520.6 689.9 C507.6 689.9 495.0 689.6 480.6 690.1 C466.3 690.6 449.0 692.6 434.7 692.8 C420.4 693.0 403.5 697.5 394.7 691.5 C385.8 685.4 381.0 667.8 381.6 656.7 C382.1 645.6 395.1 629.8 397.9 624.9 C400.6 620.0 391.2 627.5 398.1 627.5 Z" fill="#F0512E"></path>
<path d="M608.0 668.6 L605.7 668.0 L602.9 668.0 L599.7 668.2 L596.1 668.5 L592.3 668.8 L588.3 669.1 L584.2 669.4 L580.3 669.6 L576.5 669.7 L573.1 669.7 L569.9 669.6 L566.6 669.3 L563.3 668.9 L559.9 668.5 L556.5 668.0 L553.0 667.5 L549.5 667.1 L545.9 666.6 L542.2 666.2 L538.4 665.9 L534.7 665.7 L530.9 665.6 L527.2 665.4 L523.4 665.3 L519.6 665.3 L515.9 665.2 L512.3 665.2 L508.7 665.2 L505.3 665.2 L501.9 665.2 L498.7 665.2 L495.7 665.3 L492.8 665.4 L490.1 665.5 L487.5 665.6 L484.9 665.7 L482.3 665.8 L479.6 665.8 L476.8 665.9 L473.9 665.8 L470.7 665.8 L467.4 665.7 L463.9 665.5 L460.4 665.3 L456.7 665.2 L453.0 665.0 L449.2 664.8 L445.4 664.6 L441.6 664.4 L437.8 664.3 L434.0 664.2 L430.1 664.2 L426.3 664.2 L422.5 664.2 L418.7 664.2 L415.0 664.2 L411.4 664.1 L408.0 664.0 L404.6 663.8 L401.2 663.5 L397.5 663.1 L393.7 662.9 L389.9 662.6 L386.4 662.3 L383.1 662.0 L380.3 661.5 L377.9 660.9 L376.1 660.3 L375.1 659.8 L374.6 659.5 L374.2 658.8 L373.5 657.5 L372.7 655.5 L372.1 653.0 L371.6 650.3 L371.3 647.3 L371.2 644.4 L371.3 641.6 L371.5 639.1 L371.9 637.0 L372.5 635.1 L373.3 633.1 L374.3 631.0 L375.6 628.8 L377.1 626.8 L378.7 624.9 L380.3 623.2 L382.0 621.7 L383.7 620.5 L385.1 619.7 L386.5 619.3 L388.3 618.9 L390.6 618.8 L393.5 618.8 L396.8 619.0 L400.3 619.2 L404.1 619.6 L408.1 619.9 L412.2 620.0 L416.3 619.9 L420.2 619.6 L423.8 619.3 L427.3 618.8 L430.8 618.3 L434.1 617.9 L437.4 617.4 L440.6 617.1 L443.7 616.8 L446.8 616.6 L449.9 616.5 L453.0 616.5 L456.3 616.7 L459.8 616.9 L463.3 617.2 L466.8 617.6 L470.5 618.0 L474.1 618.4 L477.8 618.8 L481.5 619.2 L485.0 619.5 L488.4 619.8 L491.6 620.1 L494.8 620.3 L498.0 620.6 L501.2 620.9 L504.5 621.1 L507.8 621.3 L511.1 621.5 L514.6 621.6 L518.2 621.6 L521.9 621.5 L525.6 621.4 L529.4 621.2 L533.1 620.9 L536.9 620.6 L540.6 620.3 L544.3 620.0 L547.9 619.7 L551.5 619.5 L555.0 619.2 L558.6 619.0 L562.1 618.7 L565.6 618.4 L569.1 618.1 L572.5 617.8 L575.8 617.6 L579.2 617.4 L582.4 617.2 L585.7 617.1 L589.0 617.1 L592.3 617.1 L595.7 617.2 L599.1 617.4 L602.5 617.6 L605.9 617.8 L609.3 618.1 L612.8 618.4 L616.2 618.7 L619.6 619.1 L623.1 619.5 L627.1 619.8 L631.1 620.0 L635.1 620.1 L638.8 620.1 L642.3 620.3 L645.3 620.6 L647.7 621.0 L649.4 621.4 L650.3 621.8 L650.5 621.9 L650.8 622.4 L651.5 624.0 L652.1 626.3 L652.6 629.3 L652.8 632.7 L652.9 636.3 L652.8 639.9 L652.5 643.4 L652.1 646.6 L651.6 649.2 L651.1 651.5 L650.5 653.7 L649.7 655.7 L648.8 657.6 L647.8 659.4 L646.7 660.9 L645.5 662.3 L644.3 663.4 L643.1 664.4 L641.8 665.1 L640.6 665.6 L638.8 665.9 L636.4 666.1 L633.5 666.1 L630.2 665.9 L626.6 665.6 L622.9 665.3 L618.9 665.0 L614.8 664.9 L610.8 664.9 L607.0 665.1 L603.2 665.4 L599.4 665.8 L595.6 666.2 L591.8 666.6 L588.0 667.0 L584.3 667.3 L580.7 667.7 L577.1 668.0 L573.6 668.2 L570.1 668.4 L566.3 668.6 L562.4 668.7 L558.5 668.8 L554.6 668.9 L551.0 669.0 L547.6 669.1 L544.5 669.3 L541.9 669.6 L539.9 670.4 L537.4 671.2 L535.9 673.2 L535.8 675.8 L537.2 677.9 L539.7 678.7 L541.6 679.7 L544.2 680.2 L547.2 680.6 L550.6 681.0 L554.3 681.3 L558.2 681.6 L562.2 681.9 L566.2 682.1 L570.1 682.2 L573.9 682.3 L577.7 682.4 L581.5 682.3 L585.3 682.2 L589.1 682.0 L592.9 681.9 L596.7 681.7 L600.4 681.5 L604.1 681.4 L607.7 681.3 L611.1 681.2 L614.3 681.3 L617.7 681.6 L621.2 682.0 L624.9 682.5 L628.7 683.0 L632.6 683.3 L636.5 683.5 L640.5 683.4 L644.7 682.7 L648.7 681.5 L652.3 679.7 L655.4 677.6 L658.3 675.2 L660.8 672.5 L663.0 669.6 L664.9 666.5 L666.5 663.3 L667.9 660.0 L669.1 656.6 L670.0 653.2 L670.7 649.5 L671.3 645.5 L671.7 641.2 L671.9 636.6 L671.9 632.0 L671.6 627.3 L670.9 622.6 L669.8 618.0 L667.9 613.5 L665.0 609.1 L661.0 605.6 L656.6 603.3 L652.2 602.0 L647.9 601.2 L643.7 600.8 L639.5 600.5 L635.6 600.4 L631.8 600.3 L628.4 600.2 L625.2 599.9 L621.8 599.4 L618.3 599.0 L614.7 598.7 L611.0 598.3 L607.4 598.0 L603.7 597.8 L600.1 597.5 L596.4 597.4 L592.7 597.2 L589.0 597.2 L585.3 597.2 L581.7 597.3 L578.1 597.5 L574.5 597.7 L571.0 597.9 L567.5 598.2 L564.0 598.5 L560.6 598.8 L557.1 599.0 L553.6 599.3 L550.0 599.5 L546.3 599.8 L542.6 600.1 L539.0 600.4 L535.3 600.7 L531.7 600.9 L528.2 601.2 L524.7 601.3 L521.4 601.5 L518.1 601.5 L515.0 601.5 L511.9 601.4 L508.9 601.2 L505.8 601.0 L502.8 600.8 L499.7 600.6 L496.6 600.3 L493.4 600.0 L490.1 599.7 L486.7 599.4 L483.4 599.1 L480.0 598.8 L476.4 598.4 L472.8 597.9 L469.1 597.5 L465.3 597.1 L461.4 596.7 L457.6 596.4 L453.7 596.2 L449.8 596.2 L445.9 596.3 L442.1 596.5 L438.4 596.8 L434.9 597.2 L431.4 597.7 L428.0 598.1 L424.7 598.6 L421.5 598.9 L418.4 599.3 L415.4 599.5 L412.5 599.5 L409.3 599.4 L405.8 599.1 L402.1 598.8 L398.2 598.4 L394.2 598.2 L390.0 598.2 L385.7 598.5 L381.2 599.3 L376.8 600.8 L372.9 602.9 L369.4 605.3 L366.2 608.0 L363.3 610.9 L360.7 614.1 L358.3 617.4 L356.2 620.9 L354.4 624.5 L352.9 628.3 L351.7 632.1 L351.0 636.1 L350.5 640.2 L350.4 644.4 L350.5 648.8 L351.0 653.2 L351.8 657.6 L352.9 661.9 L354.6 666.1 L356.8 670.2 L359.9 674.1 L363.8 677.2 L367.9 679.4 L372.1 680.9 L376.3 681.9 L380.4 682.5 L384.5 682.9 L388.5 683.2 L392.3 683.5 L395.9 683.7 L399.4 684.0 L403.1 684.3 L407.1 684.5 L411.0 684.6 L414.9 684.7 L418.8 684.6 L422.7 684.6 L426.5 684.5 L430.2 684.5 L433.8 684.4 L437.4 684.5 L441.0 684.5 L444.7 684.6 L448.4 684.7 L452.2 684.9 L455.9 685.0 L459.6 685.1 L463.3 685.2 L466.9 685.2 L470.5 685.2 L473.9 685.2 L477.2 685.1 L480.3 685.0 L483.2 684.8 L485.9 684.6 L488.6 684.4 L491.3 684.2 L493.9 683.9 L496.6 683.7 L499.4 683.5 L502.4 683.4 L505.6 683.3 L509.0 683.1 L512.6 683.0 L516.1 682.8 L519.8 682.7 L523.4 682.6 L527.1 682.5 L530.7 682.5 L534.3 682.4 L537.8 682.4 L541.1 682.5 L544.5 682.6 L547.9 682.9 L551.4 683.1 L554.9 683.4 L558.5 683.6 L562.1 683.8 L565.8 683.9 L569.6 683.9 L573.4 683.8 L577.3 683.5 L581.4 683.0 L585.6 682.4 L589.8 681.7 L593.9 681.0 L597.8 680.2 L601.4 679.5 L604.5 678.7 L607.1 677.9 L609.1 676.8 L611.3 675.7 L612.6 673.5 L612.2 670.9 L610.5 669.1 Z" fill="#12443A"></path>
</g>
<g fill="#12443A"><path d="M394.6 586.1 L394.2 583.1 L392.7 581.2 L390.6 579.2 L388.2 577.2 L385.5 575.1 L382.6 572.9 L379.6 570.8 L376.5 568.6 L373.5 566.6 L370.4 564.6 L367.2 562.9 L364.0 561.3 L360.9 560.0 L357.8 558.8 L354.9 557.8 L352.0 556.9 L349.3 556.1 L346.8 555.4 L344.4 554.7 L342.1 554.1 L339.7 553.3 L336.8 552.4 L333.7 551.2 L330.6 550.0 L327.3 548.8 L324.2 547.6 L321.2 546.5 L318.4 545.7 L315.8 545.2 L312.8 546.3 L310.9 545.8 L309.0 546.5 L307.9 548.2 L308.0 550.2 L309.2 551.8 L309.3 554.8 L310.6 557.0 L312.3 559.4 L314.5 561.8 L316.9 564.4 L319.5 567.0 L322.4 569.6 L325.3 572.1 L328.4 574.4 L331.6 576.5 L334.9 578.4 L338.3 579.8 L341.6 581.1 L344.8 582.0 L348.0 582.8 L351.0 583.4 L353.9 583.9 L356.6 584.3 L359.2 584.8 L361.7 585.2 L364.5 585.9 L367.5 586.8 L370.7 587.9 L374.0 589.0 L377.2 590.2 L380.3 591.3 L383.3 592.3 L386.0 593.0 L388.5 593.4 L391.3 592.1 L393.4 592.5 L395.3 591.6 L396.3 589.7 L396.0 587.7 Z"></path>
<path d="M368.7 636.1 L367.7 632.7 L365.5 630.3 L362.7 627.9 L359.4 625.3 L355.9 622.7 L352.1 620.0 L348.3 617.4 L344.6 614.8 L341.0 612.4 L337.6 610.1 L334.4 608.0 L331.1 606.0 L327.8 604.0 L324.4 602.1 L321.0 600.2 L317.5 598.4 L314.0 596.7 L310.4 595.0 L306.8 593.3 L303.3 591.6 L299.6 589.8 L295.6 587.9 L291.5 585.8 L287.4 583.7 L283.4 581.6 L279.5 579.7 L275.8 577.9 L272.4 576.5 L269.4 575.6 L266.0 576.4 L264.0 575.8 L261.9 576.6 L260.8 578.4 L260.9 580.5 L262.2 582.2 L262.8 585.5 L264.9 588.0 L267.5 590.5 L270.6 593.2 L274.0 596.0 L277.5 598.9 L281.2 601.8 L284.8 604.7 L288.4 607.5 L291.7 610.2 L294.9 612.7 L298.1 615.2 L301.3 617.6 L304.5 619.9 L307.9 622.2 L311.3 624.4 L314.7 626.5 L318.3 628.5 L321.9 630.3 L325.7 632.1 L329.7 633.8 L333.9 635.4 L338.4 637.0 L342.9 638.5 L347.3 639.9 L351.6 641.2 L355.7 642.2 L359.3 642.9 L362.6 643.2 L365.8 642.0 L367.8 642.3 L369.6 641.3 L370.5 639.5 L370.2 637.5 Z"></path>
</g>
</svg>